# xmcd CD database file
#
# Track frame offsets:
#	150
#	14325
#	32475
#	49800
#	61200
#	78975
#	93075
#	109125
#	128475
#	154500
#	172950
#	188175
#	199475
#	214725
#	234600
#	254625
#	269400
#
# Disc length: 3974 seconds
#
# Revision: 2
# Processed by: cddbd v1.5.2PL0 Copyright (c) Steve Scherf et al.
# Submitted via: CDex 1.51
#
DISCID=e30f8411
DTITLE=Машина Времени и Воскресение - 50 на двоих CD 2
DYEAR=2001
DGENRE=Rock
TTITLE0=Шанхай блюз (Е.Маргулис--В.Сюткин_С.Миров)
TTITLE1=Марионетки (А.Макаревич)
TTITLE2=Костер (А.Макаревич)
TTITLE3=Разговор в поезде (А.Макаревич)
TTITLE4=Моя последняя любовь (А.Романов)
TTITLE5=Делай свое дело (А.Романов)
TTITLE6=Проводница (Е.Маргулис_А.Макаревич)
TTITLE7=Мой друг /лучше всех играет блюз/ (Е.Маргулис_А.Макаревич)
TTITLE8=По дороге разочарований (А.Романов)
TTITLE9=Баба (А.Романов)
TTITLE10=За тех кто в море (А.Кутиков_А.Макаревич--А.Макаревич)
TTITLE11=Синяя птица (А.Макаревич)
TTITLE12=Скачки (А.Кутиков_П.Подгородецкий--А.Макаревич)
TTITLE13=Кто виноват (А.Романов)
TTITLE14=Поворот (А.Кутиков_П.Подгородецкий--А.Макаревич)
TTITLE15=Есть у меня (А.Романов)
TTITLE16=Три окна (А.Макаревич)
EXTD=YEAR: 2001
EXTT0=
EXTT1=
EXTT2=
EXTT3=
EXTT4=
EXTT5=
EXTT6=
EXTT7=
EXTT8=
EXTT9=
EXTT10=
EXTT11=
EXTT12=
EXTT13=
EXTT14=
EXTT15=
EXTT16=
PLAYORDER=
